<?xml version="1.0" standalone="no"?>
<!DOCTYPE svg PUBLIC "-//W3C//DTD SVG 20010904//EN"
 "http://www.w3.org/TR/2001/REC-SVG-20010904/DTD/svg10.dtd">
<svg version="1.0" xmlns="http://www.w3.org/2000/svg"
 width="512.000000pt" height="512.000000pt" viewBox="0 0 512.000000 512.000000"
 preserveAspectRatio="xMidYMid meet">

<g transform="translate(0.000000,512.000000) scale(0.100000,-0.100000)"
fill="#000000" stroke="none">
<path d="M1061 4940 c-205 -54 -360 -216 -406 -423 -14 -65 -15 -268 -13
-1987 l3 -1915 22 -66 c58 -169 200 -309 368 -362 l70 -22 1455 0 1455 0 70
22 c171 54 314 197 368 368 l22 70 0 1935 0 1935 -22 70 c-53 169 -192 310
-362 368 l-66 22 -1445 2 c-1404 2 -1447 2 -1519 -17z m3031 -182 c91 -45 147
-103 191 -196 l32 -67 3 -1895 c2 -1387 0 -1911 -8 -1955 -31 -160 -155 -284
-315 -315 -44 -8 -445 -10 -1475 -8 l-1415 3 -67 32 c-93 44 -151 100 -196
191 l-37 76 0 1935 0 1936 32 67 c17 37 50 87 72 111 44 48 135 101 197 116
23 5 630 9 1475 8 l1435 -2 76 -37z"/>
<path d="M1120 4627 c-49 -16 -133 -102 -148 -153 -17 -58 -17 -730 0 -788 16
-55 99 -138 154 -154 60 -17 2808 -17 2868 0 55 16 138 99 154 154 17 58 17
730 0 788 -16 55 -99 138 -154 154 -56 16 -2821 16 -2874 -1z m2857 -170 c17
-16 18 -45 18 -377 0 -332 -1 -361 -18 -377 -17 -17 -87 -18 -1417 -18 -1330
0 -1400 1 -1417 18 -16 16 -18 47 -21 361 -2 216 1 353 7 370 6 14 21 31 33
36 14 5 589 8 1410 7 1317 -2 1388 -3 1405 -20z"/>
<path d="M3595 4384 c-55 -20 -121 -88 -140 -143 -10 -30 -15 -83 -15 -161 0
-142 14 -190 73 -248 97 -95 237 -95 334 0 59 58 73 106 73 248 0 142 -14 190
-73 248 -69 68 -163 88 -252 56z m145 -170 c12 -11 15 -41 15 -134 0 -138 -8
-155 -75 -155 -64 0 -74 19 -78 138 -4 112 6 153 40 167 29 12 78 4 98 -16z"/>
<path d="M1120 3187 c-49 -16 -133 -102 -148 -153 -16 -56 -16 -412 0 -468 16
-55 99 -138 154 -154 57 -17 571 -17 628 0 55 16 138 99 154 154 16 56 16 412
0 468 -16 55 -99 138 -154 154 -54 16 -583 15 -634 -1z"/>
<path d="M2240 3187 c-49 -16 -133 -102 -148 -153 -16 -56 -16 -412 0 -468 16
-55 99 -138 154 -154 57 -17 571 -17 628 0 26 8 60 31 91 63 32 31 55 65 63
91 16 56 16 412 0 468 -16 55 -99 138 -154 154 -54 16 -583 15 -634 -1z"/>
<path d="M3360 3187 c-49 -16 -133 -102 -148 -153 -8 -26 -12 -112 -12 -234 0
-122 4 -208 12 -234 16 -55 99 -138 154 -154 57 -17 571 -17 628 0 26 8 60 31
91 63 32 31 55 65 63 91 16 56 16 412 0 468 -16 55 -99 138 -154 154 -54 16
-583 15 -634 -1z"/>
<path d="M1120 2227 c-49 -16 -133 -102 -148 -153 -16 -56 -16 -412 0 -468 16
-55 99 -138 154 -154 57 -17 571 -17 628 0 55 16 138 99 154 154 16 56 16 412
0 468 -16 55 -99 138 -154 154 -54 16 -583 15 -634 -1z"/>
<path d="M2240 2227 c-49 -16 -133 -102 -148 -153 -16 -56 -16 -412 0 -468 16
-55 99 -138 154 -154 57 -17 571 -17 628 0 26 8 60 31 91 63 32 31 55 65 63
91 16 56 16 412 0 468 -16 55 -99 138 -154 154 -54 16 -583 15 -634 -1z"/>
<path d="M3360 2227 c-49 -16 -133 -102 -148 -153 -16 -56 -17 -1370 -1 -1429
15 -54 100 -139 154 -154 54 -15 576 -15 630 0 54 15 139 100 154 154 16 59
15 1373 -1 1429 -16 55 -99 138 -154 154 -54 16 -583 15 -634 -1z"/>
<path d="M1120 1267 c-49 -16 -133 -102 -148 -153 -16 -56 -16 -412 0 -468 16
-55 99 -138 154 -154 57 -17 571 -17 628 0 55 16 138 99 154 154 16 56 16 412
0 468 -16 55 -99 138 -154 154 -54 16 -583 15 -634 -1z"/>
<path d="M2240 1267 c-49 -16 -133 -102 -148 -153 -16 -56 -16 -412 0 -468 16
-55 99 -138 154 -154 54 -16 572 -17 629 -1 54 15 139 100 154 154 15 56 14
416 -1 469 -16 55 -99 138 -154 154 -54 16 -583 15 -634 -1z"/>
</g>
</svg>
